<svg xmlns="http://www.w3.org/2000/svg" width="450" height="450" viewBox="0 0 450 450" shape-rendering="crispEdges"><rect width="450" height="450" fill="#ffffff"/><rect x="40" y="40" width="10" height="10" fill="#3a2a22"/><rect x="50" y="40" width="10" height="10" fill="#3a2a22"/><rect x="60" y="40" width="10" height="10" fill="#3a2a22"/><rect x="70" y="40" width="10" height="10" fill="#3a2a22"/><rect x="80" y="40" width="10" height="10" fill="#3a2a22"/><rect x="90" y="40" width="10" height="10" fill="#3a2a22"/><rect x="100" y="40" width="10" height="10" fill="#3a2a22"/><rect x="160" y="40" width="10" height="10" fill="#3a2a22"/><rect x="200" y="40" width="10" height="10" fill="#3a2a22"/><rect x="230" y="40" width="10" height="10" fill="#3a2a22"/><rect x="240" y="40" width="10" height="10" fill="#3a2a22"/><rect x="270" y="40" width="10" height="10" fill="#3a2a22"/><rect x="280" y="40" width="10" height="10" fill="#3a2a22"/><rect x="300" y="40" width="10" height="10" fill="#3a2a22"/><rect x="310" y="40" width="10" height="10" fill="#3a2a22"/><rect x="340" y="40" width="10" height="10" fill="#3a2a22"/><rect x="350" y="40" width="10" height="10" fill="#3a2a22"/><rect x="360" y="40" width="10" height="10" fill="#3a2a22"/><rect x="370" y="40" width="10" height="10" fill="#3a2a22"/><rect x="380" y="40" width="10" height="10" fill="#3a2a22"/><rect x="390" y="40" width="10" height="10" fill="#3a2a22"/><rect x="400" y="40" width="10" height="10" fill="#3a2a22"/><rect x="40" y="50" width="10" height="10" fill="#3a2a22"/><rect x="100" y="50" width="10" height="10" fill="#3a2a22"/><rect x="130" y="50" width="10" height="10" fill="#3a2a22"/><rect x="190" y="50" width="10" height="10" fill="#3a2a22"/><rect x="210" y="50" width="10" height="10" fill="#3a2a22"/><rect x="250" y="50" width="10" height="10" fill="#3a2a22"/><rect x="270" y="50" width="10" height="10" fill="#3a2a22"/><rect x="280" y="50" width="10" height="10" fill="#3a2a22"/><rect x="290" y="50" width="10" height="10" fill="#3a2a22"/><rect x="310" y="50" width="10" height="10" fill="#3a2a22"/><rect x="320" y="50" width="10" height="10" fill="#3a2a22"/><rect x="340" y="50" width="10" height="10" fill="#3a2a22"/><rect x="400" y="50" width="10" height="10" fill="#3a2a22"/><rect x="40" y="60" width="10" height="10" fill="#3a2a22"/><rect x="60" y="60" width="10" height="10" fill="#3a2a22"/><rect x="70" y="60" width="10" height="10" fill="#3a2a22"/><rect x="80" y="60" width="10" height="10" fill="#3a2a22"/><rect x="100" y="60" width="10" height="10" fill="#3a2a22"/><rect x="140" y="60" width="10" height="10" fill="#3a2a22"/><rect x="160" y="60" width="10" height="10" fill="#3a2a22"/><rect x="170" y="60" width="10" height="10" fill="#3a2a22"/><rect x="180" y="60" width="10" height="10" fill="#3a2a22"/><rect x="210" y="60" width="10" height="10" fill="#3a2a22"/><rect x="230" y="60" width="10" height="10" fill="#3a2a22"/><rect x="240" y="60" width="10" height="10" fill="#3a2a22"/><rect x="260" y="60" width="10" height="10" fill="#3a2a22"/><rect x="270" y="60" width="10" height="10" fill="#3a2a22"/><rect x="280" y="60" width="10" height="10" fill="#3a2a22"/><rect x="300" y="60" width="10" height="10" fill="#3a2a22"/><rect x="310" y="60" width="10" height="10" fill="#3a2a22"/><rect x="340" y="60" width="10" height="10" fill="#3a2a22"/><rect x="360" y="60" width="10" height="10" fill="#3a2a22"/><rect x="370" y="60" width="10" height="10" fill="#3a2a22"/><rect x="380" y="60" width="10" height="10" fill="#3a2a22"/><rect x="400" y="60" width="10" height="10" fill="#3a2a22"/><rect x="40" y="70" width="10" height="10" fill="#3a2a22"/><rect x="60" y="70" width="10" height="10" fill="#3a2a22"/><rect x="70" y="70" width="10" height="10" fill="#3a2a22"/><rect x="80" y="70" width="10" height="10" fill="#3a2a22"/><rect x="100" y="70" width="10" height="10" fill="#3a2a22"/><rect x="140" y="70" width="10" height="10" fill="#3a2a22"/><rect x="190" y="70" width="10" height="10" fill="#3a2a22"/><rect x="220" y="70" width="10" height="10" fill="#3a2a22"/><rect x="260" y="70" width="10" height="10" fill="#3a2a22"/><rect x="270" y="70" width="10" height="10" fill="#3a2a22"/><rect x="280" y="70" width="10" height="10" fill="#3a2a22"/><rect x="300" y="70" width="10" height="10" fill="#3a2a22"/><rect x="320" y="70" width="10" height="10" fill="#3a2a22"/><rect x="340" y="70" width="10" height="10" fill="#3a2a22"/><rect x="360" y="70" width="10" height="10" fill="#3a2a22"/><rect x="370" y="70" width="10" height="10" fill="#3a2a22"/><rect x="380" y="70" width="10" height="10" fill="#3a2a22"/><rect x="400" y="70" width="10" height="10" fill="#3a2a22"/><rect x="40" y="80" width="10" height="10" fill="#3a2a22"/><rect x="60" y="80" width="10" height="10" fill="#3a2a22"/><rect x="70" y="80" width="10" height="10" fill="#3a2a22"/><rect x="80" y="80" width="10" height="10" fill="#3a2a22"/><rect x="100" y="80" width="10" height="10" fill="#3a2a22"/><rect x="200" y="80" width="10" height="10" fill="#3a2a22"/><rect x="220" y="80" width="10" height="10" fill="#3a2a22"/><rect x="250" y="80" width="10" height="10" fill="#3a2a22"/><rect x="270" y="80" width="10" height="10" fill="#3a2a22"/><rect x="300" y="80" width="10" height="10" fill="#3a2a22"/><rect x="310" y="80" width="10" height="10" fill="#3a2a22"/><rect x="320" y="80" width="10" height="10" fill="#3a2a22"/><rect x="340" y="80" width="10" height="10" fill="#3a2a22"/><rect x="360" y="80" width="10" height="10" fill="#3a2a22"/><rect x="370" y="80" width="10" height="10" fill="#3a2a22"/><rect x="380" y="80" width="10" height="10" fill="#3a2a22"/><rect x="400" y="80" width="10" height="10" fill="#3a2a22"/><rect x="40" y="90" width="10" height="10" fill="#3a2a22"/><rect x="100" y="90" width="10" height="10" fill="#3a2a22"/><rect x="120" y="90" width="10" height="10" fill="#3a2a22"/><rect x="130" y="90" width="10" height="10" fill="#3a2a22"/><rect x="150" y="90" width="10" height="10" fill="#3a2a22"/><rect x="170" y="90" width="10" height="10" fill="#3a2a22"/><rect x="180" y="90" width="10" height="10" fill="#3a2a22"/><rect x="210" y="90" width="10" height="10" fill="#3a2a22"/><rect x="230" y="90" width="10" height="10" fill="#3a2a22"/><rect x="240" y="90" width="10" height="10" fill="#3a2a22"/><rect x="250" y="90" width="10" height="10" fill="#3a2a22"/><rect x="260" y="90" width="10" height="10" fill="#3a2a22"/><rect x="280" y="90" width="10" height="10" fill="#3a2a22"/><rect x="290" y="90" width="10" height="10" fill="#3a2a22"/><rect x="300" y="90" width="10" height="10" fill="#3a2a22"/><rect x="310" y="90" width="10" height="10" fill="#3a2a22"/><rect x="320" y="90" width="10" height="10" fill="#3a2a22"/><rect x="340" y="90" width="10" height="10" fill="#3a2a22"/><rect x="400" y="90" width="10" height="10" fill="#3a2a22"/><rect x="40" y="100" width="10" height="10" fill="#3a2a22"/><rect x="50" y="100" width="10" height="10" fill="#3a2a22"/><rect x="60" y="100" width="10" height="10" fill="#3a2a22"/><rect x="70" y="100" width="10" height="10" fill="#3a2a22"/><rect x="80" y="100" width="10" height="10" fill="#3a2a22"/><rect x="90" y="100" width="10" height="10" fill="#3a2a22"/><rect x="100" y="100" width="10" height="10" fill="#3a2a22"/><rect x="120" y="100" width="10" height="10" fill="#3a2a22"/><rect x="140" y="100" width="10" height="10" fill="#3a2a22"/><rect x="160" y="100" width="10" height="10" fill="#3a2a22"/><rect x="180" y="100" width="10" height="10" fill="#3a2a22"/><rect x="200" y="100" width="10" height="10" fill="#3a2a22"/><rect x="220" y="100" width="10" height="10" fill="#3a2a22"/><rect x="240" y="100" width="10" height="10" fill="#3a2a22"/><rect x="260" y="100" width="10" height="10" fill="#3a2a22"/><rect x="280" y="100" width="10" height="10" fill="#3a2a22"/><rect x="300" y="100" width="10" height="10" fill="#3a2a22"/><rect x="320" y="100" width="10" height="10" fill="#3a2a22"/><rect x="340" y="100" width="10" height="10" fill="#3a2a22"/><rect x="350" y="100" width="10" height="10" fill="#3a2a22"/><rect x="360" y="100" width="10" height="10" fill="#3a2a22"/><rect x="370" y="100" width="10" height="10" fill="#3a2a22"/><rect x="380" y="100" width="10" height="10" fill="#3a2a22"/><rect x="390" y="100" width="10" height="10" fill="#3a2a22"/><rect x="400" y="100" width="10" height="10" fill="#3a2a22"/><rect x="130" y="110" width="10" height="10" fill="#3a2a22"/><rect x="140" y="110" width="10" height="10" fill="#3a2a22"/><rect x="180" y="110" width="10" height="10" fill="#3a2a22"/><rect x="190" y="110" width="10" height="10" fill="#3a2a22"/><rect x="210" y="110" width="10" height="10" fill="#3a2a22"/><rect x="230" y="110" width="10" height="10" fill="#3a2a22"/><rect x="240" y="110" width="10" height="10" fill="#3a2a22"/><rect x="250" y="110" width="10" height="10" fill="#3a2a22"/><rect x="270" y="110" width="10" height="10" fill="#3a2a22"/><rect x="310" y="110" width="10" height="10" fill="#3a2a22"/><rect x="320" y="110" width="10" height="10" fill="#3a2a22"/><rect x="40" y="120" width="10" height="10" fill="#3a2a22"/><rect x="70" y="120" width="10" height="10" fill="#3a2a22"/><rect x="90" y="120" width="10" height="10" fill="#3a2a22"/><rect x="100" y="120" width="10" height="10" fill="#3a2a22"/><rect x="120" y="120" width="10" height="10" fill="#3a2a22"/><rect x="150" y="120" width="10" height="10" fill="#3a2a22"/><rect x="160" y="120" width="10" height="10" fill="#3a2a22"/><rect x="170" y="120" width="10" height="10" fill="#3a2a22"/><rect x="180" y="120" width="10" height="10" fill="#3a2a22"/><rect x="200" y="120" width="10" height="10" fill="#3a2a22"/><rect x="280" y="120" width="10" height="10" fill="#3a2a22"/><rect x="290" y="120" width="10" height="10" fill="#3a2a22"/><rect x="300" y="120" width="10" height="10" fill="#3a2a22"/><rect x="320" y="120" width="10" height="10" fill="#3a2a22"/><rect x="330" y="120" width="10" height="10" fill="#3a2a22"/><rect x="350" y="120" width="10" height="10" fill="#3a2a22"/><rect x="50" y="130" width="10" height="10" fill="#3a2a22"/><rect x="60" y="130" width="10" height="10" fill="#3a2a22"/><rect x="110" y="130" width="10" height="10" fill="#3a2a22"/><rect x="130" y="130" width="10" height="10" fill="#3a2a22"/><rect x="160" y="130" width="10" height="10" fill="#3a2a22"/><rect x="190" y="130" width="10" height="10" fill="#3a2a22"/><rect x="200" y="130" width="10" height="10" fill="#3a2a22"/><rect x="240" y="130" width="10" height="10" fill="#3a2a22"/><rect x="280" y="130" width="10" height="10" fill="#3a2a22"/><rect x="290" y="130" width="10" height="10" fill="#3a2a22"/><rect x="300" y="130" width="10" height="10" fill="#3a2a22"/><rect x="330" y="130" width="10" height="10" fill="#3a2a22"/><rect x="340" y="130" width="10" height="10" fill="#3a2a22"/><rect x="350" y="130" width="10" height="10" fill="#3a2a22"/><rect x="380" y="130" width="10" height="10" fill="#3a2a22"/><rect x="400" y="130" width="10" height="10" fill="#3a2a22"/><rect x="70" y="140" width="10" height="10" fill="#3a2a22"/><rect x="100" y="140" width="10" height="10" fill="#3a2a22"/><rect x="120" y="140" width="10" height="10" fill="#3a2a22"/><rect x="140" y="140" width="10" height="10" fill="#3a2a22"/><rect x="150" y="140" width="10" height="10" fill="#3a2a22"/><rect x="160" y="140" width="10" height="10" fill="#3a2a22"/><rect x="180" y="140" width="10" height="10" fill="#3a2a22"/><rect x="190" y="140" width="10" height="10" fill="#3a2a22"/><rect x="230" y="140" width="10" height="10" fill="#3a2a22"/><rect x="290" y="140" width="10" height="10" fill="#3a2a22"/><rect x="300" y="140" width="10" height="10" fill="#3a2a22"/><rect x="360" y="140" width="10" height="10" fill="#3a2a22"/><rect x="370" y="140" width="10" height="10" fill="#3a2a22"/><rect x="390" y="140" width="10" height="10" fill="#3a2a22"/><rect x="400" y="140" width="10" height="10" fill="#3a2a22"/><rect x="40" y="150" width="10" height="10" fill="#3a2a22"/><rect x="50" y="150" width="10" height="10" fill="#3a2a22"/><rect x="60" y="150" width="10" height="10" fill="#3a2a22"/><rect x="90" y="150" width="10" height="10" fill="#3a2a22"/><rect x="130" y="150" width="10" height="10" fill="#3a2a22"/><rect x="140" y="150" width="10" height="10" fill="#3a2a22"/><rect x="200" y="150" width="10" height="10" fill="#3a2a22"/><rect x="220" y="150" width="10" height="10" fill="#3a2a22"/><rect x="230" y="150" width="10" height="10" fill="#3a2a22"/><rect x="250" y="150" width="10" height="10" fill="#3a2a22"/><rect x="280" y="150" width="10" height="10" fill="#3a2a22"/><rect x="290" y="150" width="10" height="10" fill="#3a2a22"/><rect x="310" y="150" width="10" height="10" fill="#3a2a22"/><rect x="330" y="150" width="10" height="10" fill="#3a2a22"/><rect x="340" y="150" width="10" height="10" fill="#3a2a22"/><rect x="350" y="150" width="10" height="10" fill="#3a2a22"/><rect x="40" y="160" width="10" height="10" fill="#3a2a22"/><rect x="50" y="160" width="10" height="10" fill="#3a2a22"/><rect x="70" y="160" width="10" height="10" fill="#3a2a22"/><rect x="80" y="160" width="10" height="10" fill="#3a2a22"/><rect x="100" y="160" width="10" height="10" fill="#3a2a22"/><rect x="120" y="160" width="10" height="10" fill="#3a2a22"/><rect x="130" y="160" width="10" height="10" fill="#3a2a22"/><rect x="160" y="160" width="10" height="10" fill="#3a2a22"/><rect x="170" y="160" width="10" height="10" fill="#3a2a22"/><rect x="180" y="160" width="10" height="10" fill="#3a2a22"/><rect x="190" y="160" width="10" height="10" fill="#3a2a22"/><rect x="210" y="160" width="10" height="10" fill="#3a2a22"/><rect x="230" y="160" width="10" height="10" fill="#3a2a22"/><rect x="240" y="160" width="10" height="10" fill="#3a2a22"/><rect x="250" y="160" width="10" height="10" fill="#3a2a22"/><rect x="280" y="160" width="10" height="10" fill="#3a2a22"/><rect x="290" y="160" width="10" height="10" fill="#3a2a22"/><rect x="320" y="160" width="10" height="10" fill="#3a2a22"/><rect x="330" y="160" width="10" height="10" fill="#3a2a22"/><rect x="340" y="160" width="10" height="10" fill="#3a2a22"/><rect x="370" y="160" width="10" height="10" fill="#3a2a22"/><rect x="390" y="160" width="10" height="10" fill="#3a2a22"/><rect x="400" y="160" width="10" height="10" fill="#3a2a22"/><rect x="60" y="170" width="10" height="10" fill="#3a2a22"/><rect x="70" y="170" width="10" height="10" fill="#3a2a22"/><rect x="80" y="170" width="10" height="10" fill="#3a2a22"/><rect x="90" y="170" width="10" height="10" fill="#3a2a22"/><rect x="120" y="170" width="10" height="10" fill="#3a2a22"/><rect x="150" y="170" width="10" height="10" fill="#3a2a22"/><rect x="170" y="170" width="10" height="10" fill="#3a2a22"/><rect x="190" y="170" width="10" height="10" fill="#3a2a22"/><rect x="210" y="170" width="10" height="10" fill="#3a2a22"/><rect x="240" y="170" width="10" height="10" fill="#3a2a22"/><rect x="250" y="170" width="10" height="10" fill="#3a2a22"/><rect x="280" y="170" width="10" height="10" fill="#3a2a22"/><rect x="330" y="170" width="10" height="10" fill="#3a2a22"/><rect x="340" y="170" width="10" height="10" fill="#3a2a22"/><rect x="350" y="170" width="10" height="10" fill="#3a2a22"/><rect x="380" y="170" width="10" height="10" fill="#3a2a22"/><rect x="390" y="170" width="10" height="10" fill="#3a2a22"/><rect x="400" y="170" width="10" height="10" fill="#3a2a22"/><rect x="50" y="180" width="10" height="10" fill="#3a2a22"/><rect x="60" y="180" width="10" height="10" fill="#3a2a22"/><rect x="100" y="180" width="10" height="10" fill="#3a2a22"/><rect x="120" y="180" width="10" height="10" fill="#3a2a22"/><rect x="140" y="180" width="10" height="10" fill="#3a2a22"/><rect x="160" y="180" width="10" height="10" fill="#3a2a22"/><rect x="170" y="180" width="10" height="10" fill="#3a2a22"/><rect x="180" y="180" width="10" height="10" fill="#3a2a22"/><rect x="220" y="180" width="10" height="10" fill="#3a2a22"/><rect x="240" y="180" width="10" height="10" fill="#3a2a22"/><rect x="260" y="180" width="10" height="10" fill="#3a2a22"/><rect x="270" y="180" width="10" height="10" fill="#3a2a22"/><rect x="300" y="180" width="10" height="10" fill="#3a2a22"/><rect x="350" y="180" width="10" height="10" fill="#3a2a22"/><rect x="360" y="180" width="10" height="10" fill="#3a2a22"/><rect x="380" y="180" width="10" height="10" fill="#3a2a22"/><rect x="400" y="180" width="10" height="10" fill="#3a2a22"/><rect x="40" y="190" width="10" height="10" fill="#3a2a22"/><rect x="60" y="190" width="10" height="10" fill="#3a2a22"/><rect x="70" y="190" width="10" height="10" fill="#3a2a22"/><rect x="110" y="190" width="10" height="10" fill="#3a2a22"/><rect x="120" y="190" width="10" height="10" fill="#3a2a22"/><rect x="130" y="190" width="10" height="10" fill="#3a2a22"/><rect x="140" y="190" width="10" height="10" fill="#3a2a22"/><rect x="170" y="190" width="10" height="10" fill="#3a2a22"/><rect x="180" y="190" width="10" height="10" fill="#3a2a22"/><rect x="190" y="190" width="10" height="10" fill="#3a2a22"/><rect x="210" y="190" width="10" height="10" fill="#3a2a22"/><rect x="220" y="190" width="10" height="10" fill="#3a2a22"/><rect x="240" y="190" width="10" height="10" fill="#3a2a22"/><rect x="250" y="190" width="10" height="10" fill="#3a2a22"/><rect x="260" y="190" width="10" height="10" fill="#3a2a22"/><rect x="280" y="190" width="10" height="10" fill="#3a2a22"/><rect x="290" y="190" width="10" height="10" fill="#3a2a22"/><rect x="340" y="190" width="10" height="10" fill="#3a2a22"/><rect x="360" y="190" width="10" height="10" fill="#3a2a22"/><rect x="50" y="200" width="10" height="10" fill="#3a2a22"/><rect x="60" y="200" width="10" height="10" fill="#3a2a22"/><rect x="70" y="200" width="10" height="10" fill="#3a2a22"/><rect x="80" y="200" width="10" height="10" fill="#3a2a22"/><rect x="100" y="200" width="10" height="10" fill="#3a2a22"/><rect x="110" y="200" width="10" height="10" fill="#3a2a22"/><rect x="120" y="200" width="10" height="10" fill="#3a2a22"/><rect x="170" y="200" width="10" height="10" fill="#3a2a22"/><rect x="190" y="200" width="10" height="10" fill="#3a2a22"/><rect x="200" y="200" width="10" height="10" fill="#3a2a22"/><rect x="210" y="200" width="10" height="10" fill="#3a2a22"/><rect x="220" y="200" width="10" height="10" fill="#3a2a22"/><rect x="250" y="200" width="10" height="10" fill="#3a2a22"/><rect x="280" y="200" width="10" height="10" fill="#3a2a22"/><rect x="310" y="200" width="10" height="10" fill="#3a2a22"/><rect x="320" y="200" width="10" height="10" fill="#3a2a22"/><rect x="330" y="200" width="10" height="10" fill="#3a2a22"/><rect x="340" y="200" width="10" height="10" fill="#3a2a22"/><rect x="370" y="200" width="10" height="10" fill="#3a2a22"/><rect x="380" y="200" width="10" height="10" fill="#3a2a22"/><rect x="400" y="200" width="10" height="10" fill="#3a2a22"/><rect x="40" y="210" width="10" height="10" fill="#3a2a22"/><rect x="50" y="210" width="10" height="10" fill="#3a2a22"/><rect x="60" y="210" width="10" height="10" fill="#3a2a22"/><rect x="90" y="210" width="10" height="10" fill="#3a2a22"/><rect x="150" y="210" width="10" height="10" fill="#3a2a22"/><rect x="160" y="210" width="10" height="10" fill="#3a2a22"/><rect x="170" y="210" width="10" height="10" fill="#3a2a22"/><rect x="190" y="210" width="10" height="10" fill="#3a2a22"/><rect x="210" y="210" width="10" height="10" fill="#3a2a22"/><rect x="220" y="210" width="10" height="10" fill="#3a2a22"/><rect x="240" y="210" width="10" height="10" fill="#3a2a22"/><rect x="250" y="210" width="10" height="10" fill="#3a2a22"/><rect x="260" y="210" width="10" height="10" fill="#3a2a22"/><rect x="270" y="210" width="10" height="10" fill="#3a2a22"/><rect x="280" y="210" width="10" height="10" fill="#3a2a22"/><rect x="300" y="210" width="10" height="10" fill="#3a2a22"/><rect x="320" y="210" width="10" height="10" fill="#3a2a22"/><rect x="330" y="210" width="10" height="10" fill="#3a2a22"/><rect x="340" y="210" width="10" height="10" fill="#3a2a22"/><rect x="360" y="210" width="10" height="10" fill="#3a2a22"/><rect x="370" y="210" width="10" height="10" fill="#3a2a22"/><rect x="390" y="210" width="10" height="10" fill="#3a2a22"/><rect x="400" y="210" width="10" height="10" fill="#3a2a22"/><rect x="40" y="220" width="10" height="10" fill="#3a2a22"/><rect x="60" y="220" width="10" height="10" fill="#3a2a22"/><rect x="80" y="220" width="10" height="10" fill="#3a2a22"/><rect x="90" y="220" width="10" height="10" fill="#3a2a22"/><rect x="100" y="220" width="10" height="10" fill="#3a2a22"/><rect x="110" y="220" width="10" height="10" fill="#3a2a22"/><rect x="140" y="220" width="10" height="10" fill="#3a2a22"/><rect x="150" y="220" width="10" height="10" fill="#3a2a22"/><rect x="160" y="220" width="10" height="10" fill="#3a2a22"/><rect x="170" y="220" width="10" height="10" fill="#3a2a22"/><rect x="180" y="220" width="10" height="10" fill="#3a2a22"/><rect x="220" y="220" width="10" height="10" fill="#3a2a22"/><rect x="280" y="220" width="10" height="10" fill="#3a2a22"/><rect x="300" y="220" width="10" height="10" fill="#3a2a22"/><rect x="330" y="220" width="10" height="10" fill="#3a2a22"/><rect x="360" y="220" width="10" height="10" fill="#3a2a22"/><rect x="380" y="220" width="10" height="10" fill="#3a2a22"/><rect x="390" y="220" width="10" height="10" fill="#3a2a22"/><rect x="400" y="220" width="10" height="10" fill="#3a2a22"/><rect x="50" y="230" width="10" height="10" fill="#3a2a22"/><rect x="70" y="230" width="10" height="10" fill="#3a2a22"/><rect x="80" y="230" width="10" height="10" fill="#3a2a22"/><rect x="110" y="230" width="10" height="10" fill="#3a2a22"/><rect x="120" y="230" width="10" height="10" fill="#3a2a22"/><rect x="130" y="230" width="10" height="10" fill="#3a2a22"/><rect x="160" y="230" width="10" height="10" fill="#3a2a22"/><rect x="180" y="230" width="10" height="10" fill="#3a2a22"/><rect x="190" y="230" width="10" height="10" fill="#3a2a22"/><rect x="200" y="230" width="10" height="10" fill="#3a2a22"/><rect x="210" y="230" width="10" height="10" fill="#3a2a22"/><rect x="220" y="230" width="10" height="10" fill="#3a2a22"/><rect x="250" y="230" width="10" height="10" fill="#3a2a22"/><rect x="310" y="230" width="10" height="10" fill="#3a2a22"/><rect x="340" y="230" width="10" height="10" fill="#3a2a22"/><rect x="350" y="230" width="10" height="10" fill="#3a2a22"/><rect x="360" y="230" width="10" height="10" fill="#3a2a22"/><rect x="380" y="230" width="10" height="10" fill="#3a2a22"/><rect x="390" y="230" width="10" height="10" fill="#3a2a22"/><rect x="40" y="240" width="10" height="10" fill="#3a2a22"/><rect x="60" y="240" width="10" height="10" fill="#3a2a22"/><rect x="90" y="240" width="10" height="10" fill="#3a2a22"/><rect x="100" y="240" width="10" height="10" fill="#3a2a22"/><rect x="110" y="240" width="10" height="10" fill="#3a2a22"/><rect x="150" y="240" width="10" height="10" fill="#3a2a22"/><rect x="170" y="240" width="10" height="10" fill="#3a2a22"/><rect x="230" y="240" width="10" height="10" fill="#3a2a22"/><rect x="250" y="240" width="10" height="10" fill="#3a2a22"/><rect x="270" y="240" width="10" height="10" fill="#3a2a22"/><rect x="280" y="240" width="10" height="10" fill="#3a2a22"/><rect x="290" y="240" width="10" height="10" fill="#3a2a22"/><rect x="300" y="240" width="10" height="10" fill="#3a2a22"/><rect x="310" y="240" width="10" height="10" fill="#3a2a22"/><rect x="320" y="240" width="10" height="10" fill="#3a2a22"/><rect x="340" y="240" width="10" height="10" fill="#3a2a22"/><rect x="360" y="240" width="10" height="10" fill="#3a2a22"/><rect x="370" y="240" width="10" height="10" fill="#3a2a22"/><rect x="380" y="240" width="10" height="10" fill="#3a2a22"/><rect x="390" y="240" width="10" height="10" fill="#3a2a22"/><rect x="40" y="250" width="10" height="10" fill="#3a2a22"/><rect x="50" y="250" width="10" height="10" fill="#3a2a22"/><rect x="60" y="250" width="10" height="10" fill="#3a2a22"/><rect x="90" y="250" width="10" height="10" fill="#3a2a22"/><rect x="110" y="250" width="10" height="10" fill="#3a2a22"/><rect x="120" y="250" width="10" height="10" fill="#3a2a22"/><rect x="130" y="250" width="10" height="10" fill="#3a2a22"/><rect x="170" y="250" width="10" height="10" fill="#3a2a22"/><rect x="180" y="250" width="10" height="10" fill="#3a2a22"/><rect x="200" y="250" width="10" height="10" fill="#3a2a22"/><rect x="210" y="250" width="10" height="10" fill="#3a2a22"/><rect x="250" y="250" width="10" height="10" fill="#3a2a22"/><rect x="280" y="250" width="10" height="10" fill="#3a2a22"/><rect x="320" y="250" width="10" height="10" fill="#3a2a22"/><rect x="330" y="250" width="10" height="10" fill="#3a2a22"/><rect x="340" y="250" width="10" height="10" fill="#3a2a22"/><rect x="350" y="250" width="10" height="10" fill="#3a2a22"/><rect x="370" y="250" width="10" height="10" fill="#3a2a22"/><rect x="390" y="250" width="10" height="10" fill="#3a2a22"/><rect x="400" y="250" width="10" height="10" fill="#3a2a22"/><rect x="50" y="260" width="10" height="10" fill="#3a2a22"/><rect x="60" y="260" width="10" height="10" fill="#3a2a22"/><rect x="80" y="260" width="10" height="10" fill="#3a2a22"/><rect x="100" y="260" width="10" height="10" fill="#3a2a22"/><rect x="120" y="260" width="10" height="10" fill="#3a2a22"/><rect x="130" y="260" width="10" height="10" fill="#3a2a22"/><rect x="160" y="260" width="10" height="10" fill="#3a2a22"/><rect x="180" y="260" width="10" height="10" fill="#3a2a22"/><rect x="200" y="260" width="10" height="10" fill="#3a2a22"/><rect x="210" y="260" width="10" height="10" fill="#3a2a22"/><rect x="230" y="260" width="10" height="10" fill="#3a2a22"/><rect x="250" y="260" width="10" height="10" fill="#3a2a22"/><rect x="260" y="260" width="10" height="10" fill="#3a2a22"/><rect x="280" y="260" width="10" height="10" fill="#3a2a22"/><rect x="290" y="260" width="10" height="10" fill="#3a2a22"/><rect x="320" y="260" width="10" height="10" fill="#3a2a22"/><rect x="340" y="260" width="10" height="10" fill="#3a2a22"/><rect x="390" y="260" width="10" height="10" fill="#3a2a22"/><rect x="400" y="260" width="10" height="10" fill="#3a2a22"/><rect x="60" y="270" width="10" height="10" fill="#3a2a22"/><rect x="80" y="270" width="10" height="10" fill="#3a2a22"/><rect x="110" y="270" width="10" height="10" fill="#3a2a22"/><rect x="120" y="270" width="10" height="10" fill="#3a2a22"/><rect x="130" y="270" width="10" height="10" fill="#3a2a22"/><rect x="140" y="270" width="10" height="10" fill="#3a2a22"/><rect x="150" y="270" width="10" height="10" fill="#3a2a22"/><rect x="160" y="270" width="10" height="10" fill="#3a2a22"/><rect x="190" y="270" width="10" height="10" fill="#3a2a22"/><rect x="220" y="270" width="10" height="10" fill="#3a2a22"/><rect x="250" y="270" width="10" height="10" fill="#3a2a22"/><rect x="270" y="270" width="10" height="10" fill="#3a2a22"/><rect x="280" y="270" width="10" height="10" fill="#3a2a22"/><rect x="290" y="270" width="10" height="10" fill="#3a2a22"/><rect x="310" y="270" width="10" height="10" fill="#3a2a22"/><rect x="330" y="270" width="10" height="10" fill="#3a2a22"/><rect x="340" y="270" width="10" height="10" fill="#3a2a22"/><rect x="40" y="280" width="10" height="10" fill="#3a2a22"/><rect x="50" y="280" width="10" height="10" fill="#3a2a22"/><rect x="60" y="280" width="10" height="10" fill="#3a2a22"/><rect x="80" y="280" width="10" height="10" fill="#3a2a22"/><rect x="100" y="280" width="10" height="10" fill="#3a2a22"/><rect x="120" y="280" width="10" height="10" fill="#3a2a22"/><rect x="170" y="280" width="10" height="10" fill="#3a2a22"/><rect x="180" y="280" width="10" height="10" fill="#3a2a22"/><rect x="200" y="280" width="10" height="10" fill="#3a2a22"/><rect x="220" y="280" width="10" height="10" fill="#3a2a22"/><rect x="230" y="280" width="10" height="10" fill="#3a2a22"/><rect x="250" y="280" width="10" height="10" fill="#3a2a22"/><rect x="260" y="280" width="10" height="10" fill="#3a2a22"/><rect x="270" y="280" width="10" height="10" fill="#3a2a22"/><rect x="290" y="280" width="10" height="10" fill="#3a2a22"/><rect x="310" y="280" width="10" height="10" fill="#3a2a22"/><rect x="320" y="280" width="10" height="10" fill="#3a2a22"/><rect x="330" y="280" width="10" height="10" fill="#3a2a22"/><rect x="340" y="280" width="10" height="10" fill="#3a2a22"/><rect x="370" y="280" width="10" height="10" fill="#3a2a22"/><rect x="390" y="280" width="10" height="10" fill="#3a2a22"/><rect x="400" y="280" width="10" height="10" fill="#3a2a22"/><rect x="60" y="290" width="10" height="10" fill="#3a2a22"/><rect x="70" y="290" width="10" height="10" fill="#3a2a22"/><rect x="90" y="290" width="10" height="10" fill="#3a2a22"/><rect x="110" y="290" width="10" height="10" fill="#3a2a22"/><rect x="130" y="290" width="10" height="10" fill="#3a2a22"/><rect x="140" y="290" width="10" height="10" fill="#3a2a22"/><rect x="180" y="290" width="10" height="10" fill="#3a2a22"/><rect x="190" y="290" width="10" height="10" fill="#3a2a22"/><rect x="230" y="290" width="10" height="10" fill="#3a2a22"/><rect x="240" y="290" width="10" height="10" fill="#3a2a22"/><rect x="250" y="290" width="10" height="10" fill="#3a2a22"/><rect x="260" y="290" width="10" height="10" fill="#3a2a22"/><rect x="280" y="290" width="10" height="10" fill="#3a2a22"/><rect x="340" y="290" width="10" height="10" fill="#3a2a22"/><rect x="350" y="290" width="10" height="10" fill="#3a2a22"/><rect x="370" y="290" width="10" height="10" fill="#3a2a22"/><rect x="380" y="290" width="10" height="10" fill="#3a2a22"/><rect x="390" y="290" width="10" height="10" fill="#3a2a22"/><rect x="400" y="290" width="10" height="10" fill="#3a2a22"/><rect x="40" y="300" width="10" height="10" fill="#3a2a22"/><rect x="70" y="300" width="10" height="10" fill="#3a2a22"/><rect x="80" y="300" width="10" height="10" fill="#3a2a22"/><rect x="90" y="300" width="10" height="10" fill="#3a2a22"/><rect x="100" y="300" width="10" height="10" fill="#3a2a22"/><rect x="160" y="300" width="10" height="10" fill="#3a2a22"/><rect x="170" y="300" width="10" height="10" fill="#3a2a22"/><rect x="190" y="300" width="10" height="10" fill="#3a2a22"/><rect x="200" y="300" width="10" height="10" fill="#3a2a22"/><rect x="210" y="300" width="10" height="10" fill="#3a2a22"/><rect x="240" y="300" width="10" height="10" fill="#3a2a22"/><rect x="250" y="300" width="10" height="10" fill="#3a2a22"/><rect x="260" y="300" width="10" height="10" fill="#3a2a22"/><rect x="270" y="300" width="10" height="10" fill="#3a2a22"/><rect x="330" y="300" width="10" height="10" fill="#3a2a22"/><rect x="400" y="300" width="10" height="10" fill="#3a2a22"/><rect x="50" y="310" width="10" height="10" fill="#3a2a22"/><rect x="70" y="310" width="10" height="10" fill="#3a2a22"/><rect x="80" y="310" width="10" height="10" fill="#3a2a22"/><rect x="90" y="310" width="10" height="10" fill="#3a2a22"/><rect x="110" y="310" width="10" height="10" fill="#3a2a22"/><rect x="140" y="310" width="10" height="10" fill="#3a2a22"/><rect x="150" y="310" width="10" height="10" fill="#3a2a22"/><rect x="160" y="310" width="10" height="10" fill="#3a2a22"/><rect x="180" y="310" width="10" height="10" fill="#3a2a22"/><rect x="200" y="310" width="10" height="10" fill="#3a2a22"/><rect x="210" y="310" width="10" height="10" fill="#3a2a22"/><rect x="230" y="310" width="10" height="10" fill="#3a2a22"/><rect x="240" y="310" width="10" height="10" fill="#3a2a22"/><rect x="250" y="310" width="10" height="10" fill="#3a2a22"/><rect x="270" y="310" width="10" height="10" fill="#3a2a22"/><rect x="290" y="310" width="10" height="10" fill="#3a2a22"/><rect x="300" y="310" width="10" height="10" fill="#3a2a22"/><rect x="310" y="310" width="10" height="10" fill="#3a2a22"/><rect x="330" y="310" width="10" height="10" fill="#3a2a22"/><rect x="360" y="310" width="10" height="10" fill="#3a2a22"/><rect x="400" y="310" width="10" height="10" fill="#3a2a22"/><rect x="40" y="320" width="10" height="10" fill="#3a2a22"/><rect x="50" y="320" width="10" height="10" fill="#3a2a22"/><rect x="60" y="320" width="10" height="10" fill="#3a2a22"/><rect x="70" y="320" width="10" height="10" fill="#3a2a22"/><rect x="100" y="320" width="10" height="10" fill="#3a2a22"/><rect x="110" y="320" width="10" height="10" fill="#3a2a22"/><rect x="120" y="320" width="10" height="10" fill="#3a2a22"/><rect x="130" y="320" width="10" height="10" fill="#3a2a22"/><rect x="160" y="320" width="10" height="10" fill="#3a2a22"/><rect x="190" y="320" width="10" height="10" fill="#3a2a22"/><rect x="210" y="320" width="10" height="10" fill="#3a2a22"/><rect x="230" y="320" width="10" height="10" fill="#3a2a22"/><rect x="240" y="320" width="10" height="10" fill="#3a2a22"/><rect x="250" y="320" width="10" height="10" fill="#3a2a22"/><rect x="280" y="320" width="10" height="10" fill="#3a2a22"/><rect x="320" y="320" width="10" height="10" fill="#3a2a22"/><rect x="330" y="320" width="10" height="10" fill="#3a2a22"/><rect x="340" y="320" width="10" height="10" fill="#3a2a22"/><rect x="350" y="320" width="10" height="10" fill="#3a2a22"/><rect x="360" y="320" width="10" height="10" fill="#3a2a22"/><rect x="380" y="320" width="10" height="10" fill="#3a2a22"/><rect x="390" y="320" width="10" height="10" fill="#3a2a22"/><rect x="120" y="330" width="10" height="10" fill="#3a2a22"/><rect x="130" y="330" width="10" height="10" fill="#3a2a22"/><rect x="150" y="330" width="10" height="10" fill="#3a2a22"/><rect x="160" y="330" width="10" height="10" fill="#3a2a22"/><rect x="200" y="330" width="10" height="10" fill="#3a2a22"/><rect x="210" y="330" width="10" height="10" fill="#3a2a22"/><rect x="220" y="330" width="10" height="10" fill="#3a2a22"/><rect x="250" y="330" width="10" height="10" fill="#3a2a22"/><rect x="270" y="330" width="10" height="10" fill="#3a2a22"/><rect x="310" y="330" width="10" height="10" fill="#3a2a22"/><rect x="320" y="330" width="10" height="10" fill="#3a2a22"/><rect x="360" y="330" width="10" height="10" fill="#3a2a22"/><rect x="370" y="330" width="10" height="10" fill="#3a2a22"/><rect x="390" y="330" width="10" height="10" fill="#3a2a22"/><rect x="400" y="330" width="10" height="10" fill="#3a2a22"/><rect x="40" y="340" width="10" height="10" fill="#3a2a22"/><rect x="50" y="340" width="10" height="10" fill="#3a2a22"/><rect x="60" y="340" width="10" height="10" fill="#3a2a22"/><rect x="70" y="340" width="10" height="10" fill="#3a2a22"/><rect x="80" y="340" width="10" height="10" fill="#3a2a22"/><rect x="90" y="340" width="10" height="10" fill="#3a2a22"/><rect x="100" y="340" width="10" height="10" fill="#3a2a22"/><rect x="130" y="340" width="10" height="10" fill="#3a2a22"/><rect x="150" y="340" width="10" height="10" fill="#3a2a22"/><rect x="160" y="340" width="10" height="10" fill="#3a2a22"/><rect x="200" y="340" width="10" height="10" fill="#3a2a22"/><rect x="210" y="340" width="10" height="10" fill="#3a2a22"/><rect x="250" y="340" width="10" height="10" fill="#3a2a22"/><rect x="310" y="340" width="10" height="10" fill="#3a2a22"/><rect x="320" y="340" width="10" height="10" fill="#3a2a22"/><rect x="340" y="340" width="10" height="10" fill="#3a2a22"/><rect x="360" y="340" width="10" height="10" fill="#3a2a22"/><rect x="370" y="340" width="10" height="10" fill="#3a2a22"/><rect x="390" y="340" width="10" height="10" fill="#3a2a22"/><rect x="400" y="340" width="10" height="10" fill="#3a2a22"/><rect x="40" y="350" width="10" height="10" fill="#3a2a22"/><rect x="100" y="350" width="10" height="10" fill="#3a2a22"/><rect x="120" y="350" width="10" height="10" fill="#3a2a22"/><rect x="130" y="350" width="10" height="10" fill="#3a2a22"/><rect x="150" y="350" width="10" height="10" fill="#3a2a22"/><rect x="170" y="350" width="10" height="10" fill="#3a2a22"/><rect x="180" y="350" width="10" height="10" fill="#3a2a22"/><rect x="190" y="350" width="10" height="10" fill="#3a2a22"/><rect x="250" y="350" width="10" height="10" fill="#3a2a22"/><rect x="260" y="350" width="10" height="10" fill="#3a2a22"/><rect x="270" y="350" width="10" height="10" fill="#3a2a22"/><rect x="320" y="350" width="10" height="10" fill="#3a2a22"/><rect x="360" y="350" width="10" height="10" fill="#3a2a22"/><rect x="370" y="350" width="10" height="10" fill="#3a2a22"/><rect x="380" y="350" width="10" height="10" fill="#3a2a22"/><rect x="400" y="350" width="10" height="10" fill="#3a2a22"/><rect x="40" y="360" width="10" height="10" fill="#3a2a22"/><rect x="60" y="360" width="10" height="10" fill="#3a2a22"/><rect x="70" y="360" width="10" height="10" fill="#3a2a22"/><rect x="80" y="360" width="10" height="10" fill="#3a2a22"/><rect x="100" y="360" width="10" height="10" fill="#3a2a22"/><rect x="160" y="360" width="10" height="10" fill="#3a2a22"/><rect x="210" y="360" width="10" height="10" fill="#3a2a22"/><rect x="230" y="360" width="10" height="10" fill="#3a2a22"/><rect x="250" y="360" width="10" height="10" fill="#3a2a22"/><rect x="270" y="360" width="10" height="10" fill="#3a2a22"/><rect x="280" y="360" width="10" height="10" fill="#3a2a22"/><rect x="290" y="360" width="10" height="10" fill="#3a2a22"/><rect x="320" y="360" width="10" height="10" fill="#3a2a22"/><rect x="330" y="360" width="10" height="10" fill="#3a2a22"/><rect x="340" y="360" width="10" height="10" fill="#3a2a22"/><rect x="350" y="360" width="10" height="10" fill="#3a2a22"/><rect x="360" y="360" width="10" height="10" fill="#3a2a22"/><rect x="370" y="360" width="10" height="10" fill="#3a2a22"/><rect x="390" y="360" width="10" height="10" fill="#3a2a22"/><rect x="400" y="360" width="10" height="10" fill="#3a2a22"/><rect x="40" y="370" width="10" height="10" fill="#3a2a22"/><rect x="60" y="370" width="10" height="10" fill="#3a2a22"/><rect x="70" y="370" width="10" height="10" fill="#3a2a22"/><rect x="80" y="370" width="10" height="10" fill="#3a2a22"/><rect x="100" y="370" width="10" height="10" fill="#3a2a22"/><rect x="120" y="370" width="10" height="10" fill="#3a2a22"/><rect x="130" y="370" width="10" height="10" fill="#3a2a22"/><rect x="140" y="370" width="10" height="10" fill="#3a2a22"/><rect x="150" y="370" width="10" height="10" fill="#3a2a22"/><rect x="170" y="370" width="10" height="10" fill="#3a2a22"/><rect x="190" y="370" width="10" height="10" fill="#3a2a22"/><rect x="240" y="370" width="10" height="10" fill="#3a2a22"/><rect x="280" y="370" width="10" height="10" fill="#3a2a22"/><rect x="290" y="370" width="10" height="10" fill="#3a2a22"/><rect x="300" y="370" width="10" height="10" fill="#3a2a22"/><rect x="350" y="370" width="10" height="10" fill="#3a2a22"/><rect x="360" y="370" width="10" height="10" fill="#3a2a22"/><rect x="370" y="370" width="10" height="10" fill="#3a2a22"/><rect x="390" y="370" width="10" height="10" fill="#3a2a22"/><rect x="40" y="380" width="10" height="10" fill="#3a2a22"/><rect x="60" y="380" width="10" height="10" fill="#3a2a22"/><rect x="70" y="380" width="10" height="10" fill="#3a2a22"/><rect x="80" y="380" width="10" height="10" fill="#3a2a22"/><rect x="100" y="380" width="10" height="10" fill="#3a2a22"/><rect x="130" y="380" width="10" height="10" fill="#3a2a22"/><rect x="160" y="380" width="10" height="10" fill="#3a2a22"/><rect x="170" y="380" width="10" height="10" fill="#3a2a22"/><rect x="180" y="380" width="10" height="10" fill="#3a2a22"/><rect x="200" y="380" width="10" height="10" fill="#3a2a22"/><rect x="220" y="380" width="10" height="10" fill="#3a2a22"/><rect x="230" y="380" width="10" height="10" fill="#3a2a22"/><rect x="250" y="380" width="10" height="10" fill="#3a2a22"/><rect x="260" y="380" width="10" height="10" fill="#3a2a22"/><rect x="300" y="380" width="10" height="10" fill="#3a2a22"/><rect x="310" y="380" width="10" height="10" fill="#3a2a22"/><rect x="350" y="380" width="10" height="10" fill="#3a2a22"/><rect x="360" y="380" width="10" height="10" fill="#3a2a22"/><rect x="370" y="380" width="10" height="10" fill="#3a2a22"/><rect x="390" y="380" width="10" height="10" fill="#3a2a22"/><rect x="400" y="380" width="10" height="10" fill="#3a2a22"/><rect x="40" y="390" width="10" height="10" fill="#3a2a22"/><rect x="100" y="390" width="10" height="10" fill="#3a2a22"/><rect x="130" y="390" width="10" height="10" fill="#3a2a22"/><rect x="150" y="390" width="10" height="10" fill="#3a2a22"/><rect x="170" y="390" width="10" height="10" fill="#3a2a22"/><rect x="190" y="390" width="10" height="10" fill="#3a2a22"/><rect x="220" y="390" width="10" height="10" fill="#3a2a22"/><rect x="240" y="390" width="10" height="10" fill="#3a2a22"/><rect x="250" y="390" width="10" height="10" fill="#3a2a22"/><rect x="270" y="390" width="10" height="10" fill="#3a2a22"/><rect x="280" y="390" width="10" height="10" fill="#3a2a22"/><rect x="290" y="390" width="10" height="10" fill="#3a2a22"/><rect x="300" y="390" width="10" height="10" fill="#3a2a22"/><rect x="310" y="390" width="10" height="10" fill="#3a2a22"/><rect x="320" y="390" width="10" height="10" fill="#3a2a22"/><rect x="330" y="390" width="10" height="10" fill="#3a2a22"/><rect x="350" y="390" width="10" height="10" fill="#3a2a22"/><rect x="40" y="400" width="10" height="10" fill="#3a2a22"/><rect x="50" y="400" width="10" height="10" fill="#3a2a22"/><rect x="60" y="400" width="10" height="10" fill="#3a2a22"/><rect x="70" y="400" width="10" height="10" fill="#3a2a22"/><rect x="80" y="400" width="10" height="10" fill="#3a2a22"/><rect x="90" y="400" width="10" height="10" fill="#3a2a22"/><rect x="100" y="400" width="10" height="10" fill="#3a2a22"/><rect x="120" y="400" width="10" height="10" fill="#3a2a22"/><rect x="140" y="400" width="10" height="10" fill="#3a2a22"/><rect x="170" y="400" width="10" height="10" fill="#3a2a22"/><rect x="180" y="400" width="10" height="10" fill="#3a2a22"/><rect x="200" y="400" width="10" height="10" fill="#3a2a22"/><rect x="230" y="400" width="10" height="10" fill="#3a2a22"/><rect x="240" y="400" width="10" height="10" fill="#3a2a22"/><rect x="250" y="400" width="10" height="10" fill="#3a2a22"/><rect x="270" y="400" width="10" height="10" fill="#3a2a22"/><rect x="280" y="400" width="10" height="10" fill="#3a2a22"/><rect x="290" y="400" width="10" height="10" fill="#3a2a22"/><rect x="310" y="400" width="10" height="10" fill="#3a2a22"/><rect x="320" y="400" width="10" height="10" fill="#3a2a22"/><rect x="340" y="400" width="10" height="10" fill="#3a2a22"/><rect x="390" y="400" width="10" height="10" fill="#3a2a22"/><rect x="400" y="400" width="10" height="10" fill="#3a2a22"/></svg>